<?xml version="1.0" encoding="UTF-8" standalone="no"?>
<!DOCTYPE svg PUBLIC "-//W3C//DTD SVG 1.1//EN"
 "http://www.w3.org/Graphics/SVG/1.1/DTD/svg11.dtd">
<!-- Generated by graphviz version 2.43.0 (0)
 -->
<!-- Title: %3 Pages: 1 -->
<svg width="1056pt" height="260pt"
 viewBox="0.00 0.00 1055.75 260.00" xmlns="http://www.w3.org/2000/svg" xmlns:xlink="http://www.w3.org/1999/xlink">
<g id="graph0" class="graph" transform="scale(1 1) rotate(0) translate(4 256)">
<title>%3</title>
<polygon fill="white" stroke="transparent" points="-4,4 -4,-256 1051.75,-256 1051.75,4 -4,4"/>
<!-- [root] aws_vpc.myvpc (expand) -->
<g id="node1" class="node">
<title>[root] aws_vpc.myvpc (expand)</title>
<polygon fill="none" stroke="black" points="552.43,-108 425.43,-108 425.43,-72 552.43,-72 552.43,-108"/>
<text text-anchor="middle" x="488.93" y="-86.3" font-family="Times,serif" font-size="14.00">aws_vpc.myvpc</text>
</g>
<!-- [root] provider[&quot;registry.terraform.io/hashicorp/aws&quot;] -->
<g id="node2" class="node">
<title>[root] provider[&quot;registry.terraform.io/hashicorp/aws&quot;]</title>
<polygon fill="none" stroke="black" points="488.93,-36 163.67,-18 488.93,0 814.19,-18 488.93,-36"/>
<text text-anchor="middle" x="488.93" y="-14.3" font-family="Times,serif" font-size="14.00">provider[&quot;registry.terraform.io/hashicorp/aws&quot;]</text>
</g>
<!-- [root] aws_vpc.myvpc (expand)&#45;&gt;[root] provider[&quot;registry.terraform.io/hashicorp/aws&quot;] -->
<g id="edge1" class="edge">
<title>[root] aws_vpc.myvpc (expand)&#45;&gt;[root] provider[&quot;registry.terraform.io/hashicorp/aws&quot;]</title>
<path fill="none" stroke="black" d="M488.93,-71.7C488.93,-63.98 488.93,-54.71 488.93,-46.11"/>
<polygon fill="black" stroke="black" points="492.43,-46.1 488.93,-36.1 485.43,-46.1 492.43,-46.1"/>
</g>
<!-- [root] meta.count&#45;boundary (EachMode fixup) -->
<g id="node3" class="node">
<title>[root] meta.count&#45;boundary (EachMode fixup)</title>
<ellipse fill="none" stroke="black" cx="222.93" cy="-162" rx="222.86" ry="18"/>
<text text-anchor="middle" x="222.93" y="-158.3" font-family="Times,serif" font-size="14.00">[root] meta.count&#45;boundary (EachMode fixup)</text>
</g>
<!-- [root] meta.count&#45;boundary (EachMode fixup)&#45;&gt;[root] aws_vpc.myvpc (expand) -->
<g id="edge2" class="edge">
<title>[root] meta.count&#45;boundary (EachMode fixup)&#45;&gt;[root] aws_vpc.myvpc (expand)</title>
<path fill="none" stroke="black" d="M284.96,-144.68C324.04,-134.39 374.69,-121.06 415.74,-110.26"/>
<polygon fill="black" stroke="black" points="416.64,-113.64 425.42,-107.71 414.85,-106.87 416.64,-113.64"/>
</g>
<!-- [root] provider[&quot;registry.terraform.io/hashicorp/aws&quot;] (close) -->
<g id="node4" class="node">
<title>[root] provider[&quot;registry.terraform.io/hashicorp/aws&quot;] (close)</title>
<ellipse fill="none" stroke="black" cx="755.93" cy="-162" rx="291.65" ry="18"/>
<text text-anchor="middle" x="755.93" y="-158.3" font-family="Times,serif" font-size="14.00">[root] provider[&quot;registry.terraform.io/hashicorp/aws&quot;] (close)</text>
</g>
<!-- [root] provider[&quot;registry.terraform.io/hashicorp/aws&quot;] (close)&#45;&gt;[root] aws_vpc.myvpc (expand) -->
<g id="edge3" class="edge">
<title>[root] provider[&quot;registry.terraform.io/hashicorp/aws&quot;] (close)&#45;&gt;[root] aws_vpc.myvpc (expand)</title>
<path fill="none" stroke="black" d="M692.65,-144.41C653.62,-134.18 603.39,-121.01 562.57,-110.31"/>
<polygon fill="black" stroke="black" points="563.24,-106.86 552.68,-107.71 561.46,-113.63 563.24,-106.86"/>
</g>
<!-- [root] root -->
<g id="node5" class="node">
<title>[root] root</title>
<ellipse fill="none" stroke="black" cx="488.93" cy="-234" rx="58.49" ry="18"/>
<text text-anchor="middle" x="488.93" y="-230.3" font-family="Times,serif" font-size="14.00">[root] root</text>
</g>
<!-- [root] root&#45;&gt;[root] meta.count&#45;boundary (EachMode fixup) -->
<g id="edge4" class="edge">
<title>[root] root&#45;&gt;[root] meta.count&#45;boundary (EachMode fixup)</title>
<path fill="none" stroke="black" d="M445.9,-221.68C405.18,-210.96 343.28,-194.67 295.03,-181.97"/>
<polygon fill="black" stroke="black" points="295.82,-178.56 285.26,-179.4 294.04,-185.33 295.82,-178.56"/>
</g>
<!-- [root] root&#45;&gt;[root] provider[&quot;registry.terraform.io/hashicorp/aws&quot;] (close) -->
<g id="edge5" class="edge">
<title>[root] root&#45;&gt;[root] provider[&quot;registry.terraform.io/hashicorp/aws&quot;] (close)</title>
<path fill="none" stroke="black" d="M531.83,-221.75C572.44,-211.11 634.24,-194.9 682.66,-182.21"/>
<polygon fill="black" stroke="black" points="683.68,-185.56 692.47,-179.64 681.91,-178.79 683.68,-185.56"/>
</g>
</g>
</svg>
